<?xml version="1.0" encoding="UTF-8" standalone="no"?>
<!-- Created with Inkscape (http://www.inkscape.org/) -->

<svg
   xmlns:dc="http://purl.org/dc/elements/1.1/"
   xmlns:cc="http://creativecommons.org/ns#"
   xmlns:rdf="http://www.w3.org/1999/02/22-rdf-syntax-ns#"
   xmlns:svg="http://www.w3.org/2000/svg"
   xmlns="http://www.w3.org/2000/svg"
   xmlns:sodipodi="http://sodipodi.sourceforge.net/DTD/sodipodi-0.dtd"
   xmlns:inkscape="http://www.inkscape.org/namespaces/inkscape"
   width="126.11866mm"
   height="53.501789mm"
   viewBox="0 0 446.87711 189.57327"
   id="svg2"
   version="1.1"
   inkscape:version="0.91 r13725"
   sodipodi:docname="DihedralKinematics.svg"
   inkscape:export-filename="/home/lupoglaz/Projects/MILA/ProteinClassesLibrary/Doc/Fig/BendingKinematics.png"
   inkscape:export-xdpi="300"
   inkscape:export-ydpi="300">
  <defs
     id="defs4">
    <marker
       inkscape:isstock="true"
       style="overflow:visible"
       id="marker4985"
       refX="0"
       refY="0"
       orient="auto"
       inkscape:stockid="Arrow2Mend">
      <path
         transform="scale(-0.6,-0.6)"
         d="M 8.7185878,4.0337352 -2.2072895,0.01601326 8.7185884,-4.0017078 c -1.7454984,2.3720609 -1.7354408,5.6174519 -6e-7,8.035443 z"
         style="fill:#000000;fill-opacity:1;fill-rule:evenodd;stroke:#000000;stroke-width:0.625;stroke-linejoin:round;stroke-opacity:1"
         id="path4987"
         inkscape:connector-curvature="0" />
    </marker>
    <marker
       inkscape:stockid="Arrow1Mstart"
       orient="auto"
       refY="0"
       refX="0"
       id="Arrow1Mstart"
       style="overflow:visible"
       inkscape:isstock="true">
      <path
         id="path4244"
         d="M 0,0 5,-5 -12.5,0 5,5 0,0 Z"
         style="fill:#000000;fill-opacity:1;fill-rule:evenodd;stroke:#000000;stroke-width:1pt;stroke-opacity:1"
         transform="matrix(0.4,0,0,0.4,4,0)"
         inkscape:connector-curvature="0" />
    </marker>
    <inkscape:perspective
       sodipodi:type="inkscape:persp3d"
       inkscape:vp_x="102.52283 : 618.30291 : 1"
       inkscape:vp_y="383.47579 : 1373.6445 : 1"
       inkscape:vp_z="738.35041 : 468.22602 : 1"
       inkscape:persp3d-origin="383.47579 : 373.64453 : 1"
       id="perspective3338" />
  </defs>
  <sodipodi:namedview
     id="base"
     pagecolor="#ffffff"
     bordercolor="#666666"
     borderopacity="1.0"
     inkscape:pageopacity="0.0"
     inkscape:pageshadow="2"
     inkscape:zoom="1.979899"
     inkscape:cx="133.206"
     inkscape:cy="104.52671"
     inkscape:document-units="px"
     inkscape:current-layer="layer1"
     showgrid="false"
     fit-margin-top="0"
     fit-margin-left="0"
     fit-margin-right="0"
     fit-margin-bottom="0"
     inkscape:window-width="1855"
     inkscape:window-height="1056"
     inkscape:window-x="65"
     inkscape:window-y="24"
     inkscape:window-maximized="1" />
  <metadata
     id="metadata7">
    <rdf:RDF>
      <cc:Work
         rdf:about="">
        <dc:format>image/svg+xml</dc:format>
        <dc:type
           rdf:resource="http://purl.org/dc/dcmitype/StillImage" />
        <dc:title></dc:title>
      </cc:Work>
    </rdf:RDF>
  </metadata>
  <g
     inkscape:label="Layer 1"
     inkscape:groupmode="layer"
     id="layer1"
     transform="translate(-232.55074,-221.63105)">
    <path
       style="fill:#7a767f;fill-opacity:0.1360947;fill-rule:evenodd;stroke:#000000;stroke-width:1px;stroke-linecap:butt;stroke-linejoin:miter;stroke-opacity:1"
       d="m 365.28355,355.76903 c 3.45886,-2.45279 6.30294,-5.58866 9.28571,-8.57143 0.47619,-0.47619 0.90271,-1.00788 1.42857,-1.42857 0.83513,-1.29626 2.46078,-1.30987 3.57143,-2.14286 0.53875,-0.40406 0.90271,-1.00788 1.42857,-1.42857 0.67035,-0.53628 1.45609,-0.91349 2.14286,-1.42857 0.80812,-0.60609 1.33474,-1.53677 2.14286,-2.14286 0.42592,-0.31944 0.98559,-0.41896 1.42857,-0.71428 0.28017,-0.18678 0.47619,-0.4762 0.71429,-0.71429 0.71428,-0.71429 1.42857,-1.42857 2.14285,-2.14286 0.2381,-0.23809 0.47619,-0.47619 0.71429,-0.71428 0.23809,-0.2381 0.5637,-0.41312 0.71428,-0.71429 0.10648,-0.21296 -0.0753,-0.48841 0,-0.71428 0.16836,-0.50508 0.54593,-0.9235 0.71429,-1.42858 0.19955,-0.59866 -0.23669,-2.38376 0,-2.85714 0.15058,-0.30117 0.60781,-0.39485 0.71429,-0.71428 0.22587,-0.67764 -0.22588,-1.46523 0,-2.14286 1.72462,-5.17387 -0.20594,1.12615 1.42857,-2.14286 0.10648,-0.21296 0,-0.47619 0,-0.71428 0.23809,-0.2381 0.5637,-0.41312 0.71428,-0.71429 0.10648,-0.21296 -0.13207,-0.51618 0,-0.71429 3.0895,-3.08949 0.11195,0.18923 2.14286,-2.85714 0.18678,-0.28016 0.60781,-0.39485 0.71429,-0.71428 0.15058,-0.45176 -0.15059,-0.97682 0,-1.42858 0.10648,-0.31943 0.6078,-0.39484 0.71428,-0.71428 0.10269,-0.30808 0,-4.72071 0,-5 0,-2.61905 0,-5.2381 0,-7.85714 0,-5 0,-10 0,-15 0,-1.66667 0,-3.33334 0,-5 0,-0.71429 0.14008,-1.44245 0,-2.14286 -0.10441,-0.52206 -0.54593,-0.9235 -0.71428,-1.42857 -0.0753,-0.22588 0.0753,-0.48841 0,-0.71429 -0.16836,-0.50508 -0.58516,-0.91207 -0.71429,-1.42857 -0.11549,-0.46197 0.21296,-1.00265 0,-1.42857 -0.30117,-0.60234 -1.1274,-0.82623 -1.42857,-1.42857 -0.21296,-0.42592 0.11549,-0.9666 0,-1.42857 -0.38719,-1.54876 -1.75567,-2.02267 -2.14286,-3.57143 -0.11549,-0.46198 0.15059,-0.97682 0,-1.42857 -0.10648,-0.31944 -0.52751,-0.43412 -0.71428,-0.71429 -1.57369,-0.35971 -0.37757,-1.46942 -0.71429,-2.14286 -0.38392,-0.76783 -1.04465,-1.37502 -1.42857,-2.14285 -0.10648,-0.21296 0.10648,-0.50133 0,-0.71429 -0.15059,-0.30117 -0.47619,-0.47619 -0.71429,-0.71429 -0.47619,-0.71428 -1.04465,-1.37502 -1.42857,-2.14285 -0.10648,-0.21296 0.13207,-0.51618 0,-0.71429 -0.54945,-0.82417 -1.5934,-1.31868 -2.14286,-2.14286 -0.29532,-0.44298 -0.39484,-1.00265 -0.71428,-1.42857 -0.66687,-0.88916 -2.75644,-2.75643 -3.57143,-3.57143 -0.71429,-0.71428 -1.42857,-1.42857 -2.14286,-2.14285 -0.47619,-0.47619 -0.86824,-1.05502 -1.42857,-1.42857 -0.44298,-0.29533 -0.98559,-0.41897 -1.42857,-0.71429 -0.56033,-0.37355 -0.82623,-1.1274 -1.42857,-1.42857 -0.21296,-0.10648 -0.51618,0.13207 -0.71429,0 -0.96671,-0.40638 -1.30236,-1.58253 -2.14285,-2.14286 -0.88597,-0.59064 -2.00531,-0.78969 -2.85715,-1.42857 -0.99513,-0.74635 -1.95599,-1.956 -2.85714,-2.85714 -0.23809,-0.2381 -0.41312,-0.5637 -0.71429,-0.71429 -0.21295,-0.10648 -0.51617,0.13207 -0.71428,0 -0.56033,-0.37355 -0.88982,-1.02451 -1.42857,-1.42857 -0.42592,-0.31944 -0.98559,-0.41897 -1.42857,-0.71429 -0.28017,-0.18677 -0.43412,-0.5275 -0.71429,-0.71428 -1.31554,-0.87703 -2.92921,-1.32896 -4.28571,-2.14286 -2.98897,-1.79338 -1.42446,-1.32477 -5,-2.85714 -0.69205,-0.29659 -1.46943,-0.37757 -2.14286,-0.71429 -0.76784,-0.38391 -1.3538,-1.0904 -2.14286,-1.42857 -3.8623,-1.65527 -1.64829,-0.15567 -5,-0.71428 -0.74268,-0.12378 -1.42857,-0.4762 -2.14286,-0.71429 -0.95238,-0.2381 -1.88531,-0.57545 -2.85714,-0.71429 -1.16666,-0.16666 -4,0.22223 -5,0 -1.25165,-0.27814 -2.33858,-1.07633 -3.57143,-1.42857 -0.45787,-0.13082 -0.95238,0 -1.42857,0 -0.71428,0 -1.42857,0 -2.14286,0 -2.80166,0 -1.89366,0.17324 -5,-0.71428 -0.0641,-0.0183 -4.2695,-1.42626 -4.28571,-1.42857 -1.64992,-0.23571 -3.3657,0.32686 -5,0 -0.52206,-0.10442 -0.90651,-0.60988 -1.42857,-0.71429 -0.70042,-0.14008 -1.42857,0 -2.14286,0 -1.66666,0 -3.33333,0 -5,0 -4.7619,0 -9.52381,0 -14.28571,0 -4.52381,0 -9.04762,0 -13.57143,0 -1.66667,0 -3.33333,0 -5,0 -0.47619,0 -0.9666,-0.11549 -1.42857,0 -0.5165,0.12912 -0.9235,0.54593 -1.42857,0.71429 -0.45176,0.15058 -1.00266,-0.21296 -1.42858,0 -0.30116,0.15058 -0.39484,0.6078 -0.71428,0.71428 -0.90351,0.30117 -1.9332,-0.23099 -2.85714,0 -1.03301,0.25825 -1.84699,1.09185 -2.85715,1.42857 -0.22587,0.0753 -0.48841,-0.0753 -0.71428,0 -0.50508,0.16836 -0.9235,0.54593 -1.42857,0.71429 -0.22588,0.0753 -0.48841,-0.0753 -0.71429,0 -5.17387,1.72462 1.12615,-0.20593 -2.14286,1.42857 -0.67343,0.33672 -1.46942,0.37757 -2.14285,0.71429 -0.30117,0.15058 -0.41312,0.5637 -0.71429,0.71428 -0.67343,0.33672 -1.44379,0.43466 -2.14286,0.71429 -3.23686,1.29474 -0.0989,0.0659 -2.14285,1.42857 -0.88597,0.59064 -1.97118,0.83793 -2.85715,1.42857 -0.28016,0.18678 -0.43412,0.52751 -0.71428,0.71429 -5.17899,2.58949 1.12938,-0.75293 -2.14286,1.42857 -0.44298,0.29532 -0.98559,0.41896 -1.42857,0.71428 -0.34632,0.23088 -3.34055,3.22512 -3.57143,3.57143 -1.41809,0.64375 -0.27526,1.97909 -0.71429,2.85714 -0.30116,0.60234 -1.1274,0.82624 -1.42857,1.42858 -0.21296,0.42591 0.0934,0.96162 0,1.42857 -0.14766,0.7383 -0.53167,1.41241 -0.71428,2.14285 -0.0578,0.23099 0.0577,0.4833 0,0.71429 -0.18261,0.73044 -0.59051,1.40018 -0.71429,2.14286 -0.19571,1.17428 0,2.38095 0,3.57143 0,2.14285 0,4.28571 0,6.42857 0,2.85714 0,5.71428 0,8.57143 0,0.71393 -0.15277,2.96033 0,3.57142 0.18261,0.73045 0.59051,1.40018 0.71429,2.14286 0.11743,0.70457 -0.22588,1.46523 0,2.14286 0.0289,0.0869 2.772,4.11543 2.85714,4.28571 0.33672,0.67344 0.44992,1.43788 0.71429,2.14286 0.4502,1.20054 1.02311,2.35504 1.42857,3.57143 0.0753,0.22588 -0.10648,0.50133 0,0.71428 2.08818,4.17638 0.63608,0.84811 2.14285,2.85715 0.51508,0.68677 0.8923,1.47251 1.42858,2.14285 0.42069,0.52587 1.02451,0.88983 1.42857,1.42858 0.31944,0.42591 0.3817,1.01283 0.71428,1.42857 3.47207,4.34008 0.73721,0.73147 3.57143,2.85714 0.53875,0.40406 0.95238,0.95238 1.42857,1.42857 0.71429,0.71429 1.42857,1.42857 2.14286,2.14286 0.37605,0.37604 1.95211,1.76137 2.14286,2.14286 0.10858,0.21716 0,2.36391 0,2.85714 0,0.84372 0.14158,3.86096 0,4.28571 -0.10648,0.31944 -0.47619,0.47619 -0.71429,0.71429 -0.23809,0.47619 -0.58516,0.91207 -0.71428,1.42857 -0.1155,0.46197 0.11549,0.9666 0,1.42857 -0.12015,0.4806 -1.30843,2.37654 -1.42858,2.85714 -0.52802,2.1121 0.80331,0.83369 -0.71428,2.85715 -0.22943,0.30591 -2.64061,2.42407 -2.85714,2.85714 -0.10648,0.21296 0.0753,0.48841 0,0.71429 -0.16836,0.50507 -0.54593,0.92349 -0.71429,1.42857 -0.0753,0.22587 0.10648,0.50132 0,0.71428 -0.30117,0.60234 -1.1274,0.82624 -1.42857,1.42857 -0.18885,0.3777 0.087,2.50915 0,2.85715 -0.12913,0.5165 -0.58516,0.91207 -0.71429,1.42857 -0.14046,0.56187 0,3.54291 0,4.28571 0,0.2381 0.0753,0.48841 0,0.71429 -0.16836,0.50507 -0.58516,0.91207 -0.71428,1.42857 -0.1155,0.46197 0,0.95238 0,1.42857 0,1.42857 0,2.85714 0,4.28572 0,1.90476 0,3.80952 0,5.71428 0,0.95238 -0.18678,1.92326 0,2.85714 0.14766,0.73831 0.47619,1.42858 0.71428,2.14286 0.2381,0.71429 0.37757,1.46942 0.71429,2.14286 0.38392,0.76783 1.04465,1.37502 1.42857,2.14286 0.67344,1.34687 0.75514,2.93884 1.42857,4.28571 0.76784,1.53567 1.97379,2.81346 2.85714,4.28571 1.22505,2.04175 0.20353,1.52968 1.42858,3.57143 0.34648,0.57747 1.00788,0.90271 1.42857,1.42857 0.53628,0.67035 0.98689,1.40673 1.42857,2.14286 0.27391,0.45653 0.3817,1.01284 0.71428,1.42857 6.94413,6.94413 -0.64097,-1.09273 2.85715,3.57143 0.80812,1.0775 2.04902,1.77965 2.85714,2.85714 0.31944,0.42592 0.39485,1.00266 0.71429,1.42858 0.40406,0.53874 0.95238,0.95238 1.42857,1.42857 0.47619,0.47619 0.95238,0.95238 1.42857,1.42857 0.71428,0.71428 1.33473,1.53676 2.14286,2.14286 0.68677,0.51507 1.45608,0.91349 2.14285,1.42857 1.42857,1.07143 0,0.71428 2.14286,2.14285 0.19811,0.13208 0.50133,-0.10648 0.71429,0 0.30117,0.15059 0.47619,0.47619 0.71428,0.71429 0.47619,0.47619 0.86824,1.05502 1.42857,1.42857 0.19811,0.13207 0.51618,-0.13207 0.71429,0 0.56033,0.37356 0.88982,1.02451 1.42857,1.42857 0.42592,0.31944 0.98559,0.41897 1.42857,0.71429 1.6345,1.08967 -0.44663,0.56541 2.14286,1.42857 0.22588,0.0753 0.47619,0 0.71428,0 0.71429,0 1.44245,-0.14008 2.14286,0 1.04412,0.20882 1.82414,1.17032 2.85714,1.42857 0.46198,0.11549 0.95239,0 1.42858,0 0.95238,0.47619 1.84699,1.09186 2.85714,1.42857 0.45175,0.15059 0.96163,-0.0934 1.42857,0 0.7383,0.14766 1.3975,0.60781 2.14286,0.71429 0.94281,0.13469 1.90476,0 2.85714,0 2.61905,0 5.2381,0 7.85714,0 2.85715,0 5.71429,0 8.57143,0 0.18657,0 3.92661,0.1197 4.28572,0 0.50507,-0.16836 0.95238,-0.47619 1.42857,-0.71429 0.47619,-0.23809 0.98559,-0.41896 1.42857,-0.71428 0.61636,-0.41091 1.58494,-1.58494 2.14286,-2.14286 1.66666,-1.66667 3.33333,-3.33333 5,-5 0.4201,-0.4201 2.52637,-2.69176 2.85714,-2.85714 0.21296,-0.10648 0.50133,0.10648 0.71428,0 0.30117,-0.15059 0.4762,-0.47619 0.71429,-0.71429 0.55792,-0.55792 1.5265,-1.73195 2.14286,-2.14286 0.44298,-0.29532 0.98559,-0.41896 1.42857,-0.71428 0.28016,-0.18678 0.43412,-0.52751 0.71428,-0.71429 5.17899,-2.58949 -1.12938,0.75293 2.14286,-1.42857 0.44298,-0.29532 0.98559,-0.41896 1.42857,-0.71428 0.28017,-0.18678 0.41312,-0.56371 0.71429,-0.71429 0.67343,-0.33672 1.41241,-0.53168 2.14286,-0.71429 0.23098,-0.0577 0.51617,0.13208 0.71428,0 0.56033,-0.37355 0.88983,-1.02451 1.42857,-1.42857 0.42592,-0.31944 0.98559,-0.41896 1.42857,-0.71428 0.28017,-0.18678 0.43412,-0.52751 0.71429,-0.71429 1.31555,-0.87703 2.92922,-1.32896 4.28571,-2.14286 0.73613,-0.44167 1.37503,-1.04465 2.14286,-1.42857 0.21296,-0.10648 0.4833,0.0577 0.71429,0 0.73044,-0.18261 1.40455,-0.56662 2.14285,-0.71428 0.46695,-0.0934 1.00266,0.21296 1.42858,0 0.60233,-0.30117 0.86824,-1.05502 1.42857,-1.42857 0.1981,-0.13208 0.50132,0.10647 0.71428,0 0.38149,-0.19075 1.76681,-1.76682 2.14286,-2.14286 0.37605,-0.37605 1.95211,-1.76137 2.14286,-2.14286 0.28571,-0.57143 -0.28572,-1.57143 0,-2.14286 0.15058,-0.30117 0.5637,-0.41311 0.71428,-0.71428 0.0939,-0.18782 0,-2.48363 0,-2.85714 0,-1.19048 0,-2.38096 0,-3.57143 0,-0.47619 -0.11549,-0.9666 0,-1.42857 0.18261,-0.73045 0.47619,-1.42858 0.71429,-2.14286 z"
       id="path4224"
       inkscape:connector-curvature="0" />
    <path
       style="fill:#7a767f;fill-opacity:0.1360947;fill-rule:evenodd;stroke:#000000;stroke-width:1px;stroke-linecap:butt;stroke-linejoin:miter;stroke-opacity:1"
       d="m 589.59283,226.35205 c -0.95238,-0.47619 -1.84699,-1.09185 -2.85714,-1.42857 -0.45175,-0.15058 -0.95238,0 -1.42857,0 -1.66667,0 -3.33333,0 -5,0 -5,0 -10,0 -15,0 -2.61905,0 -5.23809,0 -7.85714,0 -0.71429,0 -1.43409,-0.0886 -2.14286,0 -1.20468,0.15059 -2.3648,0.58022 -3.57143,0.71429 -0.94655,0.10517 -1.9414,-0.26164 -2.85714,0 -0.82544,0.23584 -1.3538,1.0904 -2.14286,1.42857 -0.90232,0.38671 -1.92583,0.40385 -2.85714,0.71429 -0.50508,0.16835 -0.91207,0.58516 -1.42857,0.71428 -0.46197,0.11549 -0.9666,-0.11549 -1.42857,0 -0.5165,0.12913 -0.95238,0.47619 -1.42858,0.71429 -0.95238,0.47619 -1.87844,1.00913 -2.85714,1.42857 -0.69204,0.29659 -1.44378,0.43466 -2.14286,0.71428 -0.49431,0.19773 -0.93425,0.51656 -1.42857,0.71429 -0.69907,0.27963 -1.46942,0.37757 -2.14285,0.71429 -0.76784,0.38391 -1.40673,0.98689 -2.14286,1.42857 -0.45653,0.27391 -0.98559,0.41896 -1.42857,0.71428 -0.28017,0.18678 -0.43412,0.52751 -0.71429,0.71429 -0.44298,0.29532 -1.00265,0.39485 -1.42857,0.71428 -0.88916,0.66687 -2.75644,2.75644 -3.57143,3.57143 -0.71428,0.71429 -1.6911,1.23935 -2.14286,2.14286 -0.43902,0.87805 -0.36959,1.93796 -0.71428,2.85714 -4.44883,11.86354 1.28755,-4.67095 -2.85714,5 -0.38671,0.90232 -0.36959,1.93796 -0.71429,2.85715 -0.37387,0.99699 -1.00913,1.87844 -1.42857,2.85714 -0.29659,0.69204 -0.47619,1.42857 -0.71429,2.14286 -0.23809,0.71428 -0.50744,1.4189 -0.71428,2.14285 -0.26969,0.94392 -0.5529,1.88881 -0.71429,2.85715 -0.0783,0.46971 0.13082,0.9707 0,1.42857 -0.35224,1.23285 -0.97837,2.37088 -1.42857,3.57143 -0.50952,1.35871 -1.20342,3.64909 -1.42857,5 -0.0783,0.46971 0.0673,0.95716 0,1.42857 -0.17169,1.20185 -0.54259,2.36957 -0.71429,3.57143 -0.39682,2.77777 0.59524,0 0,3.57142 -0.12378,0.74268 -0.50744,1.41891 -0.71428,2.14286 -0.26969,0.94392 -0.5529,1.88881 -0.71429,2.85714 -0.0783,0.46972 0,0.95238 0,1.42858 0,1.6345 0.15059,1.84168 -0.71428,3.57142 -0.15059,0.30117 -0.47619,0.47619 -0.71429,0.71429 -0.47619,0.47619 -0.95238,0.95238 -1.42857,1.42857 -0.2381,0.2381 -0.47619,0.47619 -0.71429,0.71429 -0.23809,0.23809 -0.41311,0.5637 -0.71428,0.71428 -0.21296,0.10648 -0.47619,0 -0.71429,0 -0.47619,0 -0.96163,-0.0934 -1.42857,0 -0.7383,0.14766 -1.40455,0.56663 -2.14286,0.71429 -0.46694,0.0934 -0.95886,-0.0783 -1.42857,0 -0.96833,0.16139 -1.88881,0.55289 -2.85714,0.71428 -0.46971,0.0783 -0.95238,0 -1.42857,0 -0.71429,0 -1.42857,0 -2.14286,0 -1.42857,0 -2.85714,0 -4.28571,0 -0.47619,0 -0.95238,0 -1.42858,0 -0.23809,0 -0.4884,-0.0753 -0.71428,0 -4.04692,2.02346 1.06479,-0.26619 -2.85714,0.71429 -1.29282,-0.43052 -1.32845,1.1571 -2.14286,1.42857 -0.45175,0.15059 -0.9666,-0.11549 -1.42857,0 -0.5165,0.12913 -0.9235,0.54593 -1.42857,0.71429 -0.22588,0.0753 -0.48841,-0.0753 -0.71429,0 -0.50508,0.16836 -0.92349,0.54592 -1.42857,0.71428 -0.22588,0.0753 -0.50133,-0.10648 -0.71429,0 -0.30117,0.15059 -0.41311,0.5637 -0.71428,0.71429 -0.21296,0.10648 -0.50133,-0.10648 -0.71429,0 -0.30117,0.15058 -0.47619,0.47619 -0.71428,0.71428 -0.55792,0.55792 -1.5265,1.73196 -2.14286,2.14286 -0.44298,0.29532 -0.98559,0.41897 -1.42857,0.71429 -0.44654,0.29769 -3.40162,3.34501 -3.57143,3.57143 -0.31944,0.42591 -0.41897,0.98559 -0.71429,1.42857 -0.56728,0.85092 -2.22627,2.06855 -2.85714,2.85714 -0.53628,0.67035 -0.91349,1.45609 -1.42857,2.14286 -0.20203,0.26937 -0.52751,0.43412 -0.71429,0.71428 -0.29532,0.44298 -0.41896,0.98559 -0.71428,1.42857 -1.1094,1.6641 -0.47876,-0.35329 -2.14286,2.14286 -0.13207,0.19811 0.0577,0.4833 0,0.71429 -0.18261,0.73044 -0.32691,1.49723 -0.71429,2.14285 -0.69295,1.15494 -2.04902,1.77965 -2.85714,2.85715 -0.63887,0.85183 -0.78969,2.0053 -1.42857,2.85714 -0.9796,1.30613 -2.43232,1.87214 -2.85714,3.57143 -0.1155,0.46197 0.11549,0.9666 0,1.42857 -0.91951,3.67803 -0.73189,-1.30534 -1.42857,3.57143 -0.23571,1.64991 0.27399,3.35601 0,5 -0.12378,0.74268 -0.56663,1.40455 -0.71429,2.14286 -0.0934,0.46694 0,0.95238 0,1.42857 0,1.19047 0,2.38095 0,3.57143 0,3.09523 0,6.19047 0,9.28571 0,2.14286 0,4.28571 0,6.42857 0,0.47619 0,0.95238 0,1.42857 0,0.71429 -0.22588,1.46523 0,2.14286 0.27147,0.81441 0.95238,1.42857 1.42857,2.14286 5.26549,7.89823 -1.15175,-1.91959 2.14286,3.57143 0.44168,0.73612 1.04465,1.37502 1.42857,2.14285 0.33672,0.67344 0.32691,1.49723 0.71429,2.14286 0.34648,0.57747 1.00788,0.90271 1.42857,1.42857 1.07255,1.3407 1.75799,2.96673 2.85714,4.28572 1.07781,1.29336 2.38095,2.38095 3.57143,3.57142 0.71428,0.71429 1.36684,1.49618 2.14286,2.14286 1.31898,1.09915 2.85714,1.90476 4.28571,2.85714 1.7763,1.1842 2.92859,2.08037 5,2.85715 0.91919,0.34469 1.93796,0.36959 2.85714,0.71428 0.997,0.37388 1.86015,1.0547 2.85715,1.42857 0.91918,0.3447 1.95482,0.32758 2.85714,0.71429 0.78905,0.33817 1.32845,1.1571 2.14286,1.42857 0.67763,0.22588 1.45605,-0.19623 2.14285,0 1.02383,0.29252 1.84699,1.09186 2.85715,1.42857 4.9035,1.63451 -3.32707,-2.73496 3.57142,0.71429 0.76784,0.38392 1.3458,1.10974 2.14286,1.42857 0.44213,0.17685 1.00266,-0.21296 1.42857,0 0.60234,0.30117 0.82624,1.1274 1.42857,1.42857 0.42592,0.21296 0.9666,-0.11549 1.42858,0 0.5165,0.12913 0.92349,0.54593 1.42857,0.71429 0.22587,0.0753 0.47619,0 0.71428,0 0.71429,0.23809 1.44379,0.43465 2.14286,0.71428 0.49432,0.19773 0.90651,0.60988 1.42857,0.71429 0.70042,0.14008 1.43829,-0.11743 2.14286,0 1.99585,0.33264 4.43272,1.81021 6.42857,2.14286 0.70457,0.11742 1.42857,0 2.14286,0 2.14285,0 4.28571,0 6.42857,0 0.95238,0 1.91212,-0.11813 2.85714,0 1.94822,0.24352 3.76607,1.18504 5.71429,1.42857 0.94502,0.11813 1.91211,-0.11813 2.85714,0 8.85775,1.10722 -2.1162,0.24253 5,1.42857 0.70457,0.11743 1.42857,0 2.14286,0 0.95238,0 1.90476,0 2.85714,0 1.42857,0 2.85714,0 4.28571,0 0.71429,0 1.44245,0.14008 2.14286,0 0.52206,-0.10441 0.90652,-0.60988 1.42857,-0.71429 0.70042,-0.14008 1.43829,0.11743 2.14286,0 2.97269,-0.49545 1.23979,-0.65136 3.57143,-1.42857 1.80356,-0.60119 -0.74389,1.45078 2.14286,-0.71428 0.53874,-0.40407 0.95238,-0.95239 1.42857,-1.42858 0.23809,-0.23809 0.52751,-0.43412 0.71428,-0.71428 0.29532,-0.44298 0.47619,-0.95238 0.71429,-1.42857 0.74183,-1.48367 0.99359,-2.13485 2.14286,-3.57143 0.42069,-0.52587 0.95238,-0.95238 1.42857,-1.42857 1.66666,-1.66667 3.33333,-3.33334 5,-5 0.95238,-0.95238 2.01576,-1.80542 2.85714,-2.85715 2.11182,-2.63977 0.92415,-1.44207 2.14286,-4.28571 0.41944,-0.9787 1.09185,-1.84699 1.42857,-2.85714 0.15058,-0.45176 -0.17685,-0.98644 0,-1.42857 0.70137,-1.75342 2.28136,-2.99565 3.57143,-4.28572 0.57361,-0.57361 2.95259,-3.15887 3.57143,-3.57143 0.1981,-0.13207 0.47619,0 0.71428,0 0.47619,-0.23809 1.00266,-0.39484 1.42857,-0.71428 0.53875,-0.40406 0.90271,-1.00788 1.42857,-1.42857 2.63275,-2.1062 1.34594,-0.80756 3.57143,-2.14286 0.73613,-0.44168 1.3975,-1.00266 2.14286,-1.42857 4.50724,-2.57557 1.114,-0.87343 5,-1.42857 2.9,-0.41429 5.67143,-1.72858 8.57143,-2.14286 1.41421,-0.20203 2.87658,0.23485 4.28571,0 1.48536,-0.24756 2.80911,-1.13325 4.28572,-1.42857 0.46694,-0.0934 0.96163,0.0934 1.42857,0 0.7383,-0.14766 1.40455,-0.56663 2.14286,-0.71429 0.46694,-0.0934 0.95238,0 1.42857,0 1.66666,0 3.33333,0 5,0 0.71428,0 1.45605,-0.19623 2.14285,0 1.02383,0.29252 1.87845,1.00913 2.85715,1.42857 2.0681,0.88633 4.33907,1.30706 6.42857,2.14286 0.49432,0.19773 0.91207,0.58516 1.42857,0.71429 0.54319,0.13579 2.97329,0 3.57143,0 2.01336,0 2.64834,0.20879 4.28571,-1.42858 0.2381,-0.23809 0.52751,-0.43412 0.71429,-0.71428 0.87912,-1.31868 1.26374,-2.96703 2.14286,-4.28572 1.95112,-2.92669 -0.96659,4.20217 2.14285,-3.57142 0.0884,-0.22107 -0.0577,-0.4833 0,-0.71429 2.27103,-9.0841 -0.54828,4.55225 0.71429,-4.28571 -0.0676,-1.80863 1.14361,-3.29023 1.42857,-5 0.11743,-0.70457 -0.10101,-1.43575 0,-2.14286 0.13883,-0.97183 0.57545,-1.88532 0.71429,-2.85714 0.10101,-0.70711 -0.11743,-1.43829 0,-2.14286 0.12378,-0.74268 0.5905,-1.40018 0.71428,-2.14286 0.11743,-0.70457 0,-1.42857 0,-2.14286 0,-0.71428 0,-1.42857 0,-2.14285 0,-2.85715 0,-5.71429 0,-8.57143 0,-1.08333 0.15984,-4.75527 0,-5.71429 -0.12378,-0.74268 -0.56662,-1.40455 -0.71428,-2.14285 -0.0934,-0.46695 0.11549,-0.9666 0,-1.42858 -0.12913,-0.5165 -0.47619,-0.95238 -0.71429,-1.42857 -0.23809,-0.71428 -0.56662,-1.40455 -0.71429,-2.14285 -0.0934,-0.46695 0.21296,-1.00266 0,-1.42858 -0.30116,-0.60233 -1.05501,-0.86824 -1.42857,-1.42857 -0.13207,-0.1981 0.0753,-0.48841 0,-0.71428 -0.16836,-0.50508 -0.54592,-0.9235 -0.71428,-1.42857 -0.0753,-0.22588 0.10648,-0.50133 0,-0.71429 -0.38392,-0.76783 -0.9869,-1.40673 -1.42857,-2.14286 -1.11745,-1.8624 -1.44019,-3.11073 -2.85715,-5 -0.6,-0.8 -1.54285,-1.34285 -2.14285,-2.14285 -0.31944,-0.42592 -0.39485,-1.00266 -0.71429,-1.42858 -0.80812,-1.07749 -2.01576,-1.80541 -2.85714,-2.85714 -0.53628,-0.67035 -0.91349,-1.45608 -1.42857,-2.14286 -0.20203,-0.26937 -0.47619,-0.47619 -0.71429,-0.71428 -0.95238,-0.95238 -1.90476,-1.90476 -2.85714,-2.85714 -0.47619,-0.4762 -0.95238,-0.95239 -1.42857,-1.42858 -0.47619,-0.47619 -0.88983,-1.02451 -1.42858,-1.42857 -0.42591,-0.31944 -1.00265,-0.39484 -1.42857,-0.71428 -1.06666,-0.8 -1.79047,-2.05715 -2.85714,-2.85715 -0.68677,-0.51507 -1.45608,-0.91349 -2.14286,-1.42857 -0.53874,-0.40406 -0.86824,-1.05501 -1.42857,-1.42857 -0.44298,-0.29532 -1.00265,-0.39485 -1.42857,-0.71428 -0.53875,-0.40407 -0.88982,-1.02452 -1.42857,-1.42858 -0.42592,-0.31943 -0.95238,-0.47619 -1.42857,-0.71428 -0.95238,-0.47619 -1.94409,-0.88074 -2.85715,-1.42857 -1.47225,-0.88336 -2.91217,-1.82699 -4.28571,-2.85715 -0.53875,-0.40406 -0.95238,-0.95238 -1.42857,-1.42857 -0.71429,-0.71428 -1.42857,-1.42857 -2.14286,-2.14285 -0.47619,-0.4762 -0.95238,-0.95239 -1.42857,-1.42858 -0.23809,-0.23809 -0.5637,-0.41311 -0.71429,-0.71428 -0.10647,-0.21296 0.13208,-0.51618 0,-0.71429 -0.37355,-0.56033 -1.02451,-0.88982 -1.42857,-1.42857 -0.31943,-0.42592 -0.41896,-0.98559 -0.71428,-1.42857 -0.18678,-0.28017 -0.52751,-0.43412 -0.71429,-0.71429 -1.35316,0.0814 -0.47619,-1.66666 -0.71428,-2.14285 -0.30117,-0.60234 -1.05502,-0.86824 -1.42858,-1.42857 -0.29532,-0.44299 -0.41896,-0.98559 -0.71428,-1.42858 -0.18678,-0.28016 -0.5637,-0.41311 -0.71429,-0.71428 -0.10648,-0.21296 0.0753,-0.48841 0,-0.71429 -0.16836,-0.50507 -0.54592,-0.92349 -0.71428,-1.42857 -0.25301,-0.75901 0.253,-2.09813 0,-2.85714 -0.10648,-0.31944 -0.60781,-0.39485 -0.71429,-0.71429 -0.15058,-0.45175 0,-0.95238 0,-1.42857 0,-1.66667 0,-3.33333 0,-5 0,-1.19048 0,-2.38095 0,-3.57143 0,-0.23809 0,-0.47619 0,-0.71428 0,-0.2381 -0.10648,-0.50133 0,-0.71429 1.6345,-3.269 -0.29605,3.03101 1.42857,-2.14286 0.13434,-0.403 0,-1.67349 0,-2.14285 0,-0.64384 0.14986,-3.12186 0,-3.57143 -0.16836,-0.50508 -0.41896,-0.98559 -0.71428,-1.42857 -0.18678,-0.28017 -0.47619,-0.47619 -0.71429,-0.71429 -0.23809,-0.23809 -0.41311,-0.5637 -0.71428,-0.71428 -0.21296,-0.10648 -0.50133,0.10647 -0.71429,0 -0.60234,-0.30117 -0.82623,-1.12741 -1.42857,-1.42858 -0.21296,-0.10648 -0.47619,0 -0.71429,0 -0.23809,0 -0.47619,0 -0.71428,0 -0.95238,0 -1.90476,0 -2.85715,0 z"
       id="path4226"
       inkscape:connector-curvature="0" />
    <path
       style="fill:none;fill-rule:evenodd;stroke:#000000;stroke-width:4;stroke-linecap:butt;stroke-linejoin:miter;stroke-miterlimit:4;stroke-dasharray:12, 4;stroke-dashoffset:0;stroke-opacity:1"
       d="m 445.07439,349.13742 49.78227,0.0444 86.11217,-63.75141"
       id="path4228"
       inkscape:connector-curvature="0"
       sodipodi:nodetypes="ccc" />
    <path
       style="fill:none;fill-rule:evenodd;stroke:#000000;stroke-width:4;stroke-linecap:butt;stroke-linejoin:miter;stroke-miterlimit:4;stroke-dasharray:8, 4;stroke-dashoffset:0;stroke-opacity:1"
       d="m 358.09121,348.96292 -42.42127,0.0792 -56.38423,-88.46565"
       id="path4230"
       inkscape:connector-curvature="0"
       sodipodi:nodetypes="ccc" />
    <path
       style="fill:none;fill-rule:evenodd;stroke:#000000;stroke-width:1px;stroke-linecap:butt;stroke-linejoin:miter;stroke-opacity:1;marker-start:url(#Arrow1Mstart)"
       d="m 401.60879,360.97823 c -10.2587,-23.89294 13.35962,-45.12063 24.07651,-21.79442"
       id="path4232"
       inkscape:connector-curvature="0"
       sodipodi:nodetypes="cc" />
    <circle
       style="fill:#ff0000;fill-opacity:1;stroke-width:4;stroke-miterlimit:4;stroke-dasharray:8, 4;stroke-dashoffset:0"
       id="path4918"
       cx="256.42859"
       cy="258.43362"
       r="4.6428571" />
    <circle
       style="fill:#ff0000;fill-opacity:1;stroke-width:4;stroke-miterlimit:4;stroke-dasharray:8, 4;stroke-dashoffset:0"
       id="path4918-3"
       cx="316.59317"
       cy="348.26776"
       r="4.6428571" />
    <circle
       style="fill:#ff0000;fill-opacity:1;stroke-width:4;stroke-miterlimit:4;stroke-dasharray:8, 4;stroke-dashoffset:0"
       id="path4918-6"
       cx="495.82022"
       cy="349.72296"
       r="4.6428571" />
    <text
       xml:space="preserve"
       style="font-style:normal;font-weight:normal;font-size:15px;line-height:125%;font-family:sans-serif;letter-spacing:0px;word-spacing:0px;fill:#000000;fill-opacity:1;stroke:none;stroke-width:1px;stroke-linecap:butt;stroke-linejoin:miter;stroke-opacity:1"
       x="339.66379"
       y="366.21609"
       id="text4947"
       sodipodi:linespacing="125%"><tspan
         sodipodi:role="line"
         id="tspan4949"
         x="339.66379"
         y="366.21609">i</tspan></text>
    <text
       xml:space="preserve"
       style="font-style:normal;font-weight:normal;font-size:15px;line-height:125%;font-family:sans-serif;letter-spacing:0px;word-spacing:0px;fill:#000000;fill-opacity:1;stroke:none;stroke-width:1px;stroke-linecap:butt;stroke-linejoin:miter;stroke-opacity:1"
       x="245.46707"
       y="278.58536"
       id="text4951"
       sodipodi:linespacing="125%"><tspan
         sodipodi:role="line"
         id="tspan4953"
         x="245.46707"
         y="278.58536">i-1</tspan></text>
    <text
       xml:space="preserve"
       style="font-style:normal;font-weight:normal;font-size:15px;line-height:125%;font-family:sans-serif;letter-spacing:0px;word-spacing:0px;fill:#000000;fill-opacity:1;stroke:none;stroke-width:1px;stroke-linecap:butt;stroke-linejoin:miter;stroke-opacity:1"
       x="490.19659"
       y="369.64145"
       id="text4951-5"
       sodipodi:linespacing="125%"><tspan
         sodipodi:role="line"
         id="tspan4953-3"
         x="490.19659"
         y="369.64145">i+1</tspan></text>
    <text
       xml:space="preserve"
       style="font-style:normal;font-weight:normal;font-size:15px;line-height:125%;font-family:sans-serif;letter-spacing:0px;word-spacing:0px;fill:#000000;fill-opacity:1;stroke:none;stroke-width:1px;stroke-linecap:butt;stroke-linejoin:miter;stroke-opacity:1"
       x="620.73871"
       y="355.10443"
       id="text4973"
       sodipodi:linespacing="125%"><tspan
         sodipodi:role="line"
         id="tspan4975"
         x="620.73871"
         y="355.10443">j</tspan></text>
    <path
       style="fill:none;fill-rule:evenodd;stroke:#000000;stroke-width:2;stroke-linecap:butt;stroke-linejoin:miter;stroke-miterlimit:4;stroke-dasharray:none;stroke-opacity:1;marker-end:url(#marker4985)"
       d="m 623.32539,336.28134 53.4768,33.72282"
       id="path4977"
       inkscape:connector-curvature="0"
       sodipodi:nodetypes="cc" />
    <text
       xml:space="preserve"
       style="font-style:normal;font-weight:normal;font-size:15px;line-height:125%;font-family:sans-serif;letter-spacing:0px;word-spacing:0px;fill:#000000;fill-opacity:1;stroke:none;stroke-width:1px;stroke-linecap:butt;stroke-linejoin:miter;stroke-opacity:1"
       x="639.42651"
       y="343.7402"
       id="text5439"
       sodipodi:linespacing="125%"><tspan
         sodipodi:role="line"
         id="tspan5441"
         x="639.42651"
         y="343.7402"
         style="font-style:normal;font-variant:normal;font-weight:bold;font-stretch:normal;font-family:sans-serif;-inkscape-font-specification:'sans-serif Bold'">dr</tspan></text>
    <circle
       style="fill:#0000ff;fill-opacity:1;stroke-width:4;stroke-miterlimit:4;stroke-dasharray:8, 4;stroke-dashoffset:0"
       id="path4918-7"
       cx="623.25165"
       cy="335.89517"
       r="4.6428571" />
    <circle
       style="fill:#ff0000;fill-opacity:1;stroke-width:4;stroke-miterlimit:4;stroke-dasharray:8, 4;stroke-dashoffset:0"
       id="path4918-6-5"
       cx="581.31885"
       cy="283.8634"
       r="4.6428571" />
    <text
       xml:space="preserve"
       style="font-style:normal;font-weight:normal;font-size:15px;line-height:125%;font-family:sans-serif;letter-spacing:0px;word-spacing:0px;fill:#000000;fill-opacity:1;stroke:none;stroke-width:1px;stroke-linecap:butt;stroke-linejoin:miter;stroke-opacity:1"
       x="575.69525"
       y="303.78189"
       id="text4951-5-6"
       sodipodi:linespacing="125%"><tspan
         sodipodi:role="line"
         id="tspan4953-3-2"
         x="575.69525"
         y="303.78189">i+2</tspan></text>
    <path
       style="fill:none;fill-rule:evenodd;stroke:#000000;stroke-width:4;stroke-linecap:butt;stroke-linejoin:miter;stroke-miterlimit:4;stroke-dasharray:none;stroke-opacity:1"
       d="m 359.95617,348.95367 84.34774,0.12627"
       id="path8534"
       inkscape:connector-curvature="0"
       sodipodi:nodetypes="cc" />
  </g>
</svg>
